<?xml version="1.0" encoding="UTF-8"?><svg id="Layer_1" xmlns="http://www.w3.org/2000/svg" xmlns:xlink="http://www.w3.org/1999/xlink" viewBox="0 0 1578.43 974.53"><defs><style>.cls-1{fill:url(#linear-gradient);}.cls-1,.cls-2,.cls-3,.cls-4,.cls-5,.cls-6{stroke-width:0px;}.cls-2{fill:url(#linear-gradient-4);}.cls-3{fill:url(#linear-gradient-2);}.cls-4{fill:url(#linear-gradient-3);}.cls-5{fill:url(#linear-gradient-5);}.cls-6{fill:#fff;}</style><linearGradient id="linear-gradient" x1="692.66" y1="360.8" x2="1053.81" y2="84.75" gradientUnits="userSpaceOnUse"><stop offset="0" stop-color="#edbca0"/><stop offset="1" stop-color="#a17169"/></linearGradient><linearGradient id="linear-gradient-2" x1="636.87" y1="47.77" x2="769.03" y2="281.41" gradientUnits="userSpaceOnUse"><stop offset="0" stop-color="#f8bab1"/><stop offset="1" stop-color="#aa6159"/></linearGradient><linearGradient id="linear-gradient-3" x1="710.62" y1="384.28" x2="1071.76" y2="108.23" xlink:href="#linear-gradient-2"/><linearGradient id="linear-gradient-4" x1="731.19" y1="411.2" x2="1092.33" y2="135.14" xlink:href="#linear-gradient"/><linearGradient id="linear-gradient-5" x1="783.45" y1="116.28" x2="922.81" y2="19.8" xlink:href="#linear-gradient-2"/></defs><polygon class="cls-1" points="1035.31 61.53 1035.31 61.53 971.44 185.06 1035.31 61.53"/><polygon class="cls-3" points="676.09 48.96 676.09 193.51 676.09 312.23 832.01 197.63 676.09 48.96"/><polygon class="cls-4" points="898.8 325.56 971.44 185.06 1035.31 61.53 676.09 325.56 898.8 325.56"/><polygon class="cls-2" points="898.81 325.56 971.44 185.06 898.8 325.56 898.81 325.56"/><path class="cls-5" d="m921.96,66.26c-36.6,0-66.26-29.67-66.26-66.26,0,36.6-29.67,66.26-66.26,66.26,36.6,0,66.26,29.67,66.26,66.26,0-36.6,29.67-66.26,66.26-66.26Z"/><path class="cls-6" d="m231.55,932.14c0-23.72,18.79-42.39,42.86-42.39,13.03,0,25.12,5.17,32.99,13.98l-7.51,7.75c-6.23-7.28-15.74-11.39-25.48-11.39-17.85,0-31.36,13.97-31.36,32.06s13.62,31.94,31.71,31.94c9.74,0,18.9-4,25.01-11.04l7.4,7.51c-8.1,8.8-20.08,13.97-32.75,13.97-24.07,0-42.86-18.67-42.86-42.39Z"/><path class="cls-6" d="m355.61,932.14c0-23.72,18.79-42.39,42.62-42.39s42.62,18.67,42.62,42.39-18.79,42.39-42.62,42.39-42.62-18.67-42.62-42.39Zm73.74,0c0-18.08-13.5-32.06-31.12-32.06s-31.12,13.97-31.12,32.06,13.5,32.06,31.12,32.06,31.12-13.97,31.12-32.06Z"/><path class="cls-6" d="m495.53,891.04h11.27v72.09h47.91v10.1h-59.18v-82.19Z"/><path class="cls-6" d="m608.43,891.04h11.27v72.09h47.91v10.1h-59.18v-82.19Z"/><path class="cls-6" d="m721.33,891.04h60v9.86h-48.73v25.95h31.94v9.75h-31.94v26.77h49.2v9.86h-60.47v-82.19Z"/><path class="cls-6" d="m826.94,932.14c0-23.72,18.79-42.39,42.86-42.39,13.03,0,25.12,5.17,32.99,13.98l-7.51,7.75c-6.23-7.28-15.74-11.39-25.48-11.39-17.85,0-31.36,13.97-31.36,32.06s13.62,31.94,31.71,31.94c9.74,0,18.9-4,25.01-11.04l7.4,7.51c-8.1,8.8-20.08,13.97-32.75,13.97-24.07,0-42.86-18.67-42.86-42.39Z"/><path class="cls-6" d="m980.13,901.14h-29.12v-10.1h69.63v10.1h-29.24v72.09h-11.27v-72.09Z"/><path class="cls-6" d="m1072.37,891.04h11.27v82.19h-11.27v-82.19Z"/><path class="cls-6" d="m1138.27,932.14c0-23.72,18.79-42.39,42.62-42.39s42.62,18.67,42.62,42.39-18.78,42.39-42.62,42.39-42.62-18.67-42.62-42.39Zm73.74,0c0-18.08-13.5-32.06-31.12-32.06s-31.12,13.97-31.12,32.06,13.5,32.06,31.12,32.06,31.12-13.97,31.12-32.06Z"/><path class="cls-6" d="m1278.19,891.04h11.04l47.09,62.94v-62.94h10.57v82.19h-9.87l-48.13-64.7v64.7h-10.69v-82.19Z"/><path class="cls-6" d="m213.34,548.26c0,61.6-48.92,101.46-127.73,101.46-14.04,0-29.44-1.36-39.41-2.72v140.41H0v-329.75h85.61c84.7,0,127.73,32.61,127.73,90.59Zm-48.92,5.43c0-52.09-26.27-88.77-85.61-88.77h-32.61v174.38c8.16,1.82,18.58,3.17,31.71,3.17,57.52,0,86.51-33.52,86.51-88.78Z"/><path class="cls-6" d="m517.69,739.86v57.52h-2.72l-134.07-149.47c-6.34-7.25-10.87-9.5-23.56-9.5h-30.35v149.02h-46.2v-329.75h81.08c86.97,0,133.62,27.18,133.62,83.34,0,46.66-36.24,71.11-79.27,86.06l101.46,112.79Zm-68.85-195.67c0-48.01-28.99-79.27-88.77-79.27h-33.07v163.51c10.42,1.82,32.61,2.72,41.68,2.72,49.37,0,80.17-39.86,80.17-86.97Z"/><path class="cls-6" d="m582.45,457.67h46.2v329.75h-46.2v-329.75Z"/><path class="cls-6" d="m954.3,457.67c-5.89,36.24-9.06,80.63-9.06,144.03v191.14h-4.07l-209.72-290.34v140.87c0,63.41,2.72,107.8,9.06,144.03h-27.18c5.89-36.24,9.06-80.63,9.06-144.03v-153.55l-22.2-30.8v-1.36h54.81l181.18,255.46v-111.42c0-63.41-2.72-107.8-9.06-144.03h27.18Z"/><path class="cls-6" d="m1018.6,625.26c0-105.54,72.02-173.03,167.59-173.03,53.45,0,97.84,23.56,123.65,53l-22.64,20.38c-23.11-38.5-59.34-66.13-103.28-66.13-69.3,0-114.6,66.13-114.6,154.46,0,100.1,54.81,158.99,127.73,158.99,39.41,0,82.43-16.76,111.88-62.05l5.43,3.16c-29.9,48.46-76.1,78.81-137.7,78.81-90.59,0-158.08-65.67-158.08-167.58Z"/><path class="cls-6" d="m1578.43,757.07l-8.6,30.35h-195.22v-329.75h189.78l5.44,28.54h-.91c-41.68-14.04-83.79-20.38-123.2-20.38h-24.92v145.84h20.84c48.91,0,81.08-3.16,95.11-9.05h.91v28.08h-.91c-14.04-5.89-46.2-10.87-95.11-10.87h-20.84v159.44h26.27c38.95,0,86.97-5.89,130.45-22.19h.91Z"/></svg>